<mxfile host="app.diagrams.net" modified="2023-04-10T01:48:32.420Z" agent="Mozilla/5.0 (Macintosh; Intel Mac OS X 10_15_7) AppleWebKit/605.1.15 (KHTML, like Gecko) Version/16.3 Safari/605.1.15" version="21.1.5" etag="tNDc2k9V0uucAITi758L" type="github">
  <diagram name="Page-1" id="u9r4KX6cEs_cUNEqJdID">
    <mxGraphModel>
      <root>
        <mxCell id="0" />
        <mxCell id="1" parent="0" />
      </root>
    </mxGraphModel>
  </diagram>
</mxfile>
